<mxfile host="app.diagrams.net" modified="2020-07-29T12:12:37.554Z" agent="5.0 (Windows NT 10.0; Win64; x64) AppleWebKit/537.36 (KHTML, like Gecko) Chrome/84.0.4147.89 Safari/537.36" etag="JSiYB-DaQwiuJRcxuaU2" version="13.5.4" type="github">
  <diagram name="Page-1" id="5f0bae14-7c28-e335-631c-24af17079c00">
    <mxGraphModel dx="782" dy="388" grid="1" gridSize="10" guides="1" tooltips="1" connect="1" arrows="1" fold="1" page="1" pageScale="1" pageWidth="1100" pageHeight="850" background="#ffffff" math="0" shadow="0">
      <root>
        <mxCell id="0" />
        <mxCell id="1" parent="0" />
        <mxCell id="2QyRIhkgAAj0MdfAddQl-88" style="edgeStyle=orthogonalEdgeStyle;rounded=0;orthogonalLoop=1;jettySize=auto;html=1;exitX=0;exitY=0;exitDx=150;exitDy=41;exitPerimeter=0;entryX=0;entryY=0;entryDx=0;entryDy=41;entryPerimeter=0;fillColor=#d5e8d4;strokeColor=#82b366;" edge="1" parent="1">
          <mxGeometry relative="1" as="geometry">
            <mxPoint x="595" y="346" as="sourcePoint" />
            <mxPoint x="780" y="325" as="targetPoint" />
            <Array as="points">
              <mxPoint x="595" y="326" />
              <mxPoint x="685" y="326" />
              <mxPoint x="685" y="310" />
              <mxPoint x="770" y="310" />
              <mxPoint x="770" y="325" />
            </Array>
          </mxGeometry>
        </mxCell>
        <mxCell id="2QyRIhkgAAj0MdfAddQl-110" style="edgeStyle=orthogonalEdgeStyle;rounded=0;orthogonalLoop=1;jettySize=auto;html=1;entryX=0;entryY=0;entryDx=0;entryDy=47;entryPerimeter=0;strokeColor=#00FF00;" edge="1" parent="1">
          <mxGeometry relative="1" as="geometry">
            <mxPoint x="595" y="334" as="sourcePoint" />
            <mxPoint x="780" y="526" as="targetPoint" />
            <Array as="points">
              <mxPoint x="595" y="370" />
              <mxPoint x="750" y="370" />
              <mxPoint x="750" y="526" />
            </Array>
          </mxGeometry>
        </mxCell>
        <mxCell id="2QyRIhkgAAj0MdfAddQl-11" value="Kafka to file system (GP)" style="shape=folder;fontStyle=1;spacingTop=10;tabWidth=40;tabHeight=14;tabPosition=left;html=1;" vertex="1" parent="1">
          <mxGeometry x="445" y="290" width="150" height="50" as="geometry" />
        </mxCell>
        <mxCell id="2QyRIhkgAAj0MdfAddQl-109" style="edgeStyle=orthogonalEdgeStyle;rounded=0;orthogonalLoop=1;jettySize=auto;html=1;strokeColor=#00FF00;entryX=-0.029;entryY=0.715;entryDx=0;entryDy=0;entryPerimeter=0;" edge="1" parent="1">
          <mxGeometry relative="1" as="geometry">
            <mxPoint x="775.94" y="341.35" as="targetPoint" />
            <mxPoint x="593" y="382" as="sourcePoint" />
            <Array as="points">
              <mxPoint x="730" y="382" />
              <mxPoint x="730" y="341" />
            </Array>
          </mxGeometry>
        </mxCell>
        <mxCell id="2QyRIhkgAAj0MdfAddQl-111" style="edgeStyle=orthogonalEdgeStyle;rounded=0;orthogonalLoop=1;jettySize=auto;html=1;entryX=0;entryY=0;entryDx=0;entryDy=47;entryPerimeter=0;strokeColor=#00FF00;" edge="1" parent="1">
          <mxGeometry relative="1" as="geometry">
            <mxPoint x="580" y="392" as="sourcePoint" />
            <mxPoint x="767" y="514" as="targetPoint" />
          </mxGeometry>
        </mxCell>
        <mxCell id="2QyRIhkgAAj0MdfAddQl-17" value="file system (GP) to GP" style="shape=folder;fontStyle=1;spacingTop=10;tabWidth=40;tabHeight=14;tabPosition=left;html=1;" vertex="1" parent="1">
          <mxGeometry x="443" y="360" width="150" height="50" as="geometry" />
        </mxCell>
        <mxCell id="2QyRIhkgAAj0MdfAddQl-6" value="core" style="shape=folder;fontStyle=1;spacingTop=10;tabWidth=40;tabHeight=14;tabPosition=left;html=1;" vertex="1" parent="1">
          <mxGeometry x="60" y="290" width="70" height="50" as="geometry" />
        </mxCell>
        <mxCell id="2QyRIhkgAAj0MdfAddQl-102" style="edgeStyle=orthogonalEdgeStyle;rounded=0;orthogonalLoop=1;jettySize=auto;html=1;entryX=0;entryY=0;entryDx=0;entryDy=52;entryPerimeter=0;fillColor=#d5e8d4;strokeColor=#82b366;" edge="1" parent="1" source="2QyRIhkgAAj0MdfAddQl-7" target="2QyRIhkgAAj0MdfAddQl-46">
          <mxGeometry relative="1" as="geometry">
            <Array as="points">
              <mxPoint x="672" y="185" />
              <mxPoint x="672" y="325" />
              <mxPoint x="780" y="325" />
            </Array>
          </mxGeometry>
        </mxCell>
        <mxCell id="2QyRIhkgAAj0MdfAddQl-7" value="sql-server to kafka" style="shape=folder;fontStyle=1;spacingTop=10;tabWidth=40;tabHeight=14;tabPosition=left;html=1;" vertex="1" parent="1">
          <mxGeometry x="443" y="160" width="120" height="50" as="geometry" />
        </mxCell>
        <mxCell id="2QyRIhkgAAj0MdfAddQl-90" style="edgeStyle=orthogonalEdgeStyle;rounded=0;orthogonalLoop=1;jettySize=auto;html=1;entryX=0;entryY=0;entryDx=0;entryDy=14;entryPerimeter=0;fillColor=#d5e8d4;strokeColor=#82b366;" edge="1" parent="1" source="2QyRIhkgAAj0MdfAddQl-8" target="2QyRIhkgAAj0MdfAddQl-46">
          <mxGeometry relative="1" as="geometry">
            <mxPoint x="700" y="300" as="targetPoint" />
            <Array as="points">
              <mxPoint x="720" y="55" />
              <mxPoint x="720" y="294" />
            </Array>
          </mxGeometry>
        </mxCell>
        <mxCell id="2QyRIhkgAAj0MdfAddQl-8" value="datasource" style="shape=folder;fontStyle=1;spacingTop=10;tabWidth=40;tabHeight=14;tabPosition=left;html=1;" vertex="1" parent="1">
          <mxGeometry x="240" y="30" width="70" height="50" as="geometry" />
        </mxCell>
        <mxCell id="2QyRIhkgAAj0MdfAddQl-9" value="oracle to kafka" style="shape=folder;fontStyle=1;spacingTop=10;tabWidth=40;tabHeight=14;tabPosition=left;html=1;" vertex="1" parent="1">
          <mxGeometry x="443" y="100" width="120" height="50" as="geometry" />
        </mxCell>
        <mxCell id="2QyRIhkgAAj0MdfAddQl-10" value="kafka" style="shape=folder;fontStyle=1;spacingTop=10;tabWidth=40;tabHeight=14;tabPosition=left;html=1;" vertex="1" parent="1">
          <mxGeometry x="240" y="600" width="70" height="50" as="geometry" />
        </mxCell>
        <mxCell id="2QyRIhkgAAj0MdfAddQl-92" style="edgeStyle=orthogonalEdgeStyle;rounded=0;orthogonalLoop=1;jettySize=auto;html=1;entryX=0;entryY=0;entryDx=0;entryDy=23;entryPerimeter=0;fillColor=#fff2cc;strokeColor=#d6b656;" edge="1" parent="1" source="2QyRIhkgAAj0MdfAddQl-14" target="2QyRIhkgAAj0MdfAddQl-47">
          <mxGeometry relative="1" as="geometry">
            <Array as="points">
              <mxPoint x="650" y="250" />
              <mxPoint x="650" y="483" />
            </Array>
          </mxGeometry>
        </mxCell>
        <mxCell id="2QyRIhkgAAj0MdfAddQl-14" value="file syste to kafka" style="shape=folder;fontStyle=1;spacingTop=10;tabWidth=40;tabHeight=14;tabPosition=left;html=1;" vertex="1" parent="1">
          <mxGeometry x="443" y="220" width="120" height="50" as="geometry" />
        </mxCell>
        <mxCell id="2QyRIhkgAAj0MdfAddQl-93" style="edgeStyle=orthogonalEdgeStyle;rounded=0;orthogonalLoop=1;jettySize=auto;html=1;entryX=0.014;entryY=0.675;entryDx=0;entryDy=0;entryPerimeter=0;fillColor=#e1d5e7;strokeColor=#9673a6;exitX=0;exitY=0;exitDx=150;exitDy=32;exitPerimeter=0;" edge="1" parent="1">
          <mxGeometry relative="1" as="geometry">
            <mxPoint x="781.96" y="161" as="targetPoint" />
            <mxPoint x="593" y="476" as="sourcePoint" />
            <Array as="points">
              <mxPoint x="593" y="472" />
              <mxPoint x="620" y="472" />
              <mxPoint x="620" y="177" />
              <mxPoint x="782" y="177" />
            </Array>
          </mxGeometry>
        </mxCell>
        <mxCell id="2QyRIhkgAAj0MdfAddQl-95" style="edgeStyle=orthogonalEdgeStyle;rounded=0;orthogonalLoop=1;jettySize=auto;html=1;entryX=0;entryY=0.667;entryDx=0;entryDy=0;entryPerimeter=0;fillColor=#d5e8d4;strokeColor=#82b366;" edge="1" parent="1">
          <mxGeometry relative="1" as="geometry">
            <mxPoint x="650" y="458" as="sourcePoint" />
            <mxPoint x="780" y="333.03" as="targetPoint" />
            <Array as="points">
              <mxPoint x="740" y="458" />
              <mxPoint x="740" y="333" />
            </Array>
          </mxGeometry>
        </mxCell>
        <mxCell id="2QyRIhkgAAj0MdfAddQl-99" style="edgeStyle=orthogonalEdgeStyle;rounded=0;orthogonalLoop=1;jettySize=auto;html=1;fillColor=#fff2cc;strokeColor=#d6b656;" edge="1" parent="1">
          <mxGeometry relative="1" as="geometry">
            <mxPoint x="593" y="484" as="sourcePoint" />
            <mxPoint x="778" y="530" as="targetPoint" />
            <Array as="points">
              <mxPoint x="660" y="484" />
              <mxPoint x="660" y="520" />
              <mxPoint x="778" y="520" />
            </Array>
          </mxGeometry>
        </mxCell>
        <mxCell id="2QyRIhkgAAj0MdfAddQl-107" style="edgeStyle=orthogonalEdgeStyle;orthogonalLoop=1;jettySize=auto;html=1;entryX=0;entryY=0.667;entryDx=0;entryDy=0;entryPerimeter=0;strokeColor=#00FF00;rounded=0;" edge="1" parent="1" source="2QyRIhkgAAj0MdfAddQl-15" target="2QyRIhkgAAj0MdfAddQl-46">
          <mxGeometry relative="1" as="geometry" />
        </mxCell>
        <mxCell id="2QyRIhkgAAj0MdfAddQl-15" value="Kafka to file system (TD)" style="shape=folder;fontStyle=1;spacingTop=10;tabWidth=40;tabHeight=14;tabPosition=left;html=1;" vertex="1" parent="1">
          <mxGeometry x="443" y="440" width="150" height="50" as="geometry" />
        </mxCell>
        <mxCell id="2QyRIhkgAAj0MdfAddQl-94" style="edgeStyle=orthogonalEdgeStyle;rounded=0;orthogonalLoop=1;jettySize=auto;html=1;fillColor=#e1d5e7;strokeColor=#9673a6;entryX=0;entryY=0.9;entryDx=0;entryDy=0;entryPerimeter=0;" edge="1" parent="1">
          <mxGeometry relative="1" as="geometry">
            <mxPoint x="583" y="536" as="sourcePoint" />
            <mxPoint x="780" y="179" as="targetPoint" />
            <Array as="points">
              <mxPoint x="640" y="536" />
              <mxPoint x="640" y="181" />
              <mxPoint x="770" y="181" />
              <mxPoint x="770" y="179" />
            </Array>
          </mxGeometry>
        </mxCell>
        <mxCell id="2QyRIhkgAAj0MdfAddQl-96" style="edgeStyle=orthogonalEdgeStyle;rounded=0;orthogonalLoop=1;jettySize=auto;html=1;entryX=0;entryY=0;entryDx=0;entryDy=71;entryPerimeter=0;fillColor=#d5e8d4;strokeColor=#82b366;" edge="1" parent="1">
          <mxGeometry relative="1" as="geometry">
            <mxPoint x="593" y="543" as="sourcePoint" />
            <mxPoint x="780" y="359" as="targetPoint" />
            <Array as="points">
              <mxPoint x="750" y="543" />
              <mxPoint x="750" y="352" />
              <mxPoint x="770" y="352" />
              <mxPoint x="770" y="359" />
            </Array>
          </mxGeometry>
        </mxCell>
        <mxCell id="2QyRIhkgAAj0MdfAddQl-100" style="edgeStyle=orthogonalEdgeStyle;rounded=0;orthogonalLoop=1;jettySize=auto;html=1;entryX=0;entryY=0;entryDx=0;entryDy=63.5;entryPerimeter=0;fillColor=#fff2cc;strokeColor=#d6b656;" edge="1" parent="1">
          <mxGeometry relative="1" as="geometry">
            <mxPoint x="593" y="550" as="sourcePoint" />
            <mxPoint x="780" y="538.5" as="targetPoint" />
            <Array as="points">
              <mxPoint x="687" y="550" />
              <mxPoint x="687" y="530" />
              <mxPoint x="780" y="530" />
            </Array>
          </mxGeometry>
        </mxCell>
        <mxCell id="2QyRIhkgAAj0MdfAddQl-16" value="file system (TD) to TD" style="shape=folder;fontStyle=1;spacingTop=10;tabWidth=40;tabHeight=14;tabPosition=left;html=1;" vertex="1" parent="1">
          <mxGeometry x="443" y="510" width="150" height="50" as="geometry" />
        </mxCell>
        <mxCell id="2QyRIhkgAAj0MdfAddQl-25" value="" style="endArrow=none;html=1;edgeStyle=orthogonalEdgeStyle;entryX=0;entryY=0;entryDx=0;entryDy=32;entryPerimeter=0;" edge="1" parent="1" target="2QyRIhkgAAj0MdfAddQl-10">
          <mxGeometry relative="1" as="geometry">
            <mxPoint x="130" y="330" as="sourcePoint" />
            <mxPoint x="260" y="330" as="targetPoint" />
            <Array as="points">
              <mxPoint x="200" y="330" />
              <mxPoint x="200" y="632" />
            </Array>
          </mxGeometry>
        </mxCell>
        <mxCell id="2QyRIhkgAAj0MdfAddQl-28" value="" style="endArrow=none;html=1;edgeStyle=orthogonalEdgeStyle;exitX=0;exitY=0;exitDx=70;exitDy=23;exitPerimeter=0;" edge="1" parent="1">
          <mxGeometry relative="1" as="geometry">
            <mxPoint x="130" y="312" as="sourcePoint" />
            <mxPoint x="240" y="61" as="targetPoint" />
            <Array as="points">
              <mxPoint x="200" y="312" />
              <mxPoint x="200" y="61" />
            </Array>
          </mxGeometry>
        </mxCell>
        <mxCell id="2QyRIhkgAAj0MdfAddQl-31" value="" style="endArrow=none;html=1;edgeStyle=orthogonalEdgeStyle;exitX=0;exitY=0;exitDx=70;exitDy=32;exitPerimeter=0;" edge="1" parent="1" source="2QyRIhkgAAj0MdfAddQl-5">
          <mxGeometry relative="1" as="geometry">
            <mxPoint x="370" y="320" as="sourcePoint" />
            <mxPoint x="440" y="320" as="targetPoint" />
            <Array as="points">
              <mxPoint x="370" y="322" />
              <mxPoint x="370" y="320" />
            </Array>
          </mxGeometry>
        </mxCell>
        <mxCell id="2QyRIhkgAAj0MdfAddQl-33" value="" style="endArrow=none;html=1;edgeStyle=orthogonalEdgeStyle;entryX=0;entryY=0;entryDx=0;entryDy=32;entryPerimeter=0;exitX=0;exitY=0;exitDx=70;exitDy=41;exitPerimeter=0;" edge="1" parent="1" source="2QyRIhkgAAj0MdfAddQl-5">
          <mxGeometry relative="1" as="geometry">
            <mxPoint x="350" y="330" as="sourcePoint" />
            <mxPoint x="440" y="392" as="targetPoint" />
            <Array as="points">
              <mxPoint x="310" y="330" />
              <mxPoint x="437" y="330" />
              <mxPoint x="437" y="392" />
            </Array>
          </mxGeometry>
        </mxCell>
        <mxCell id="2QyRIhkgAAj0MdfAddQl-35" value="" style="endArrow=none;html=1;edgeStyle=orthogonalEdgeStyle;exitX=0;exitY=0;exitDx=70;exitDy=50;exitPerimeter=0;entryX=0;entryY=0;entryDx=0;entryDy=41;entryPerimeter=0;" edge="1" parent="1" source="2QyRIhkgAAj0MdfAddQl-5" target="2QyRIhkgAAj0MdfAddQl-15">
          <mxGeometry relative="1" as="geometry">
            <mxPoint x="370" y="340" as="sourcePoint" />
            <mxPoint x="490" y="480" as="targetPoint" />
            <Array as="points">
              <mxPoint x="420" y="340" />
              <mxPoint x="420" y="480" />
            </Array>
          </mxGeometry>
        </mxCell>
        <mxCell id="2QyRIhkgAAj0MdfAddQl-37" value="" style="endArrow=none;html=1;edgeStyle=orthogonalEdgeStyle;entryX=0;entryY=0;entryDx=0;entryDy=32;entryPerimeter=0;" edge="1" parent="1" target="2QyRIhkgAAj0MdfAddQl-16">
          <mxGeometry relative="1" as="geometry">
            <mxPoint x="360" y="340" as="sourcePoint" />
            <mxPoint x="490" y="540" as="targetPoint" />
            <Array as="points">
              <mxPoint x="380" y="340" />
              <mxPoint x="380" y="540" />
              <mxPoint x="443" y="540" />
            </Array>
          </mxGeometry>
        </mxCell>
        <mxCell id="2QyRIhkgAAj0MdfAddQl-39" value="" style="endArrow=none;html=1;edgeStyle=orthogonalEdgeStyle;entryX=0;entryY=0;entryDx=0;entryDy=32;entryPerimeter=0;exitX=0;exitY=0;exitDx=70;exitDy=23;exitPerimeter=0;" edge="1" parent="1" source="2QyRIhkgAAj0MdfAddQl-5" target="2QyRIhkgAAj0MdfAddQl-14">
          <mxGeometry relative="1" as="geometry">
            <mxPoint x="360" y="310" as="sourcePoint" />
            <mxPoint x="440" y="230" as="targetPoint" />
            <Array as="points">
              <mxPoint x="310" y="310" />
              <mxPoint x="440" y="310" />
              <mxPoint x="440" y="252" />
            </Array>
          </mxGeometry>
        </mxCell>
        <mxCell id="2QyRIhkgAAj0MdfAddQl-41" value="" style="endArrow=none;html=1;edgeStyle=orthogonalEdgeStyle;exitX=0;exitY=0;exitDx=70;exitDy=14;exitPerimeter=0;" edge="1" parent="1" source="2QyRIhkgAAj0MdfAddQl-5">
          <mxGeometry relative="1" as="geometry">
            <mxPoint x="370" y="320" as="sourcePoint" />
            <mxPoint x="440" y="190" as="targetPoint" />
            <Array as="points">
              <mxPoint x="420" y="304" />
              <mxPoint x="420" y="190" />
            </Array>
          </mxGeometry>
        </mxCell>
        <mxCell id="2QyRIhkgAAj0MdfAddQl-43" value="" style="endArrow=none;html=1;edgeStyle=orthogonalEdgeStyle;exitX=0;exitY=0;exitDx=70;exitDy=14;exitPerimeter=0;entryX=0;entryY=0;entryDx=0;entryDy=32;entryPerimeter=0;" edge="1" parent="1" target="2QyRIhkgAAj0MdfAddQl-9">
          <mxGeometry relative="1" as="geometry">
            <mxPoint x="360" y="304" as="sourcePoint" />
            <mxPoint x="440" y="140" as="targetPoint" />
            <Array as="points">
              <mxPoint x="390" y="304" />
              <mxPoint x="390" y="130" />
              <mxPoint x="440" y="130" />
              <mxPoint x="440" y="140" />
              <mxPoint x="443" y="140" />
            </Array>
          </mxGeometry>
        </mxCell>
        <mxCell id="2QyRIhkgAAj0MdfAddQl-45" value="oracle to DDL" style="shape=folder;fontStyle=1;spacingTop=10;tabWidth=40;tabHeight=14;tabPosition=left;html=1;" vertex="1" parent="1">
          <mxGeometry x="780" y="100" width="140" height="80" as="geometry" />
        </mxCell>
        <mxCell id="2QyRIhkgAAj0MdfAddQl-46" value="sql server to DDL" style="shape=folder;fontStyle=1;spacingTop=10;tabWidth=40;tabHeight=14;tabPosition=left;html=1;" vertex="1" parent="1">
          <mxGeometry x="780" y="280" width="140" height="90" as="geometry" />
        </mxCell>
        <mxCell id="2QyRIhkgAAj0MdfAddQl-47" value="file system to DDL" style="shape=folder;fontStyle=1;spacingTop=10;tabWidth=40;tabHeight=14;tabPosition=left;html=1;" vertex="1" parent="1">
          <mxGeometry x="780" y="460" width="140" height="80" as="geometry" />
        </mxCell>
        <mxCell id="2QyRIhkgAAj0MdfAddQl-48" value="" style="endArrow=none;html=1;edgeStyle=orthogonalEdgeStyle;fillColor=#e1d5e7;strokeColor=#9673a6;entryX=0.014;entryY=0.263;entryDx=0;entryDy=0;entryPerimeter=0;exitX=0;exitY=0;exitDx=70;exitDy=32;exitPerimeter=0;" edge="1" parent="1">
          <mxGeometry relative="1" as="geometry">
            <mxPoint x="310" y="70" as="sourcePoint" />
            <mxPoint x="778.96" y="129.03999999999996" as="targetPoint" />
            <Array as="points">
              <mxPoint x="310" y="68" />
              <mxPoint x="580" y="68" />
              <mxPoint x="580" y="128" />
              <mxPoint x="717" y="128" />
              <mxPoint x="717" y="129" />
            </Array>
          </mxGeometry>
        </mxCell>
        <mxCell id="2QyRIhkgAAj0MdfAddQl-55" value="" style="endArrow=none;html=1;edgeStyle=orthogonalEdgeStyle;fillColor=#e1d5e7;strokeColor=#9673a6;entryX=0;entryY=0;entryDx=0;entryDy=30.5;entryPerimeter=0;exitX=0;exitY=0;exitDx=120;exitDy=32;exitPerimeter=0;" edge="1" parent="1" source="2QyRIhkgAAj0MdfAddQl-9" target="2QyRIhkgAAj0MdfAddQl-45">
          <mxGeometry relative="1" as="geometry">
            <mxPoint x="620" y="130" as="sourcePoint" />
            <mxPoint x="720" y="130" as="targetPoint" />
            <Array as="points" />
          </mxGeometry>
        </mxCell>
        <mxCell id="2QyRIhkgAAj0MdfAddQl-61" value="" style="endArrow=none;html=1;edgeStyle=orthogonalEdgeStyle;entryX=0;entryY=0;entryDx=0;entryDy=47;entryPerimeter=0;fillColor=#e1d5e7;strokeColor=#9673a6;" edge="1" parent="1" target="2QyRIhkgAAj0MdfAddQl-45">
          <mxGeometry relative="1" as="geometry">
            <mxPoint x="595" y="315" as="sourcePoint" />
            <mxPoint x="725.98" y="140.03999999999996" as="targetPoint" />
            <Array as="points">
              <mxPoint x="605" y="315" />
              <mxPoint x="605" y="139" />
              <mxPoint x="780" y="139" />
            </Array>
          </mxGeometry>
        </mxCell>
        <mxCell id="2QyRIhkgAAj0MdfAddQl-65" value="" style="endArrow=none;html=1;edgeStyle=orthogonalEdgeStyle;fillColor=#e1d5e7;strokeColor=#9673a6;entryX=0;entryY=0;entryDx=0;entryDy=63.5;entryPerimeter=0;exitX=0;exitY=0;exitDx=150;exitDy=32;exitPerimeter=0;" edge="1" parent="1" source="2QyRIhkgAAj0MdfAddQl-17">
          <mxGeometry relative="1" as="geometry">
            <mxPoint x="600" y="389" as="sourcePoint" />
            <mxPoint x="780" y="162.5" as="targetPoint" />
            <Array as="points">
              <mxPoint x="593" y="410" />
              <mxPoint x="610" y="410" />
              <mxPoint x="610" y="159" />
              <mxPoint x="780" y="159" />
            </Array>
          </mxGeometry>
        </mxCell>
        <mxCell id="2QyRIhkgAAj0MdfAddQl-68" value="" style="endArrow=none;html=1;edgeStyle=orthogonalEdgeStyle;entryX=0;entryY=0;entryDx=0;entryDy=30.5;entryPerimeter=0;fillColor=#fff2cc;strokeColor=#d6b656;" edge="1" parent="1">
          <mxGeometry relative="1" as="geometry">
            <mxPoint x="310" y="642" as="sourcePoint" />
            <mxPoint x="780" y="492.5" as="targetPoint" />
            <Array as="points">
              <mxPoint x="700" y="632" />
              <mxPoint x="700" y="492" />
            </Array>
          </mxGeometry>
        </mxCell>
        <mxCell id="2QyRIhkgAAj0MdfAddQl-71" value="" style="endArrow=none;html=1;edgeStyle=orthogonalEdgeStyle;exitX=0;exitY=0;exitDx=70;exitDy=23;exitPerimeter=0;fillColor=#d5e8d4;strokeColor=#82b366;" edge="1" parent="1" source="2QyRIhkgAAj0MdfAddQl-10">
          <mxGeometry relative="1" as="geometry">
            <mxPoint x="370" y="622" as="sourcePoint" />
            <mxPoint x="780" y="349" as="targetPoint" />
            <Array as="points">
              <mxPoint x="370" y="623" />
              <mxPoint x="370" y="624" />
              <mxPoint x="690" y="624" />
              <mxPoint x="690" y="359" />
              <mxPoint x="780" y="359" />
            </Array>
          </mxGeometry>
        </mxCell>
        <mxCell id="2QyRIhkgAAj0MdfAddQl-84" value="" style="endArrow=none;html=1;edgeStyle=orthogonalEdgeStyle;fillColor=#e1d5e7;strokeColor=#9673a6;" edge="1" parent="1">
          <mxGeometry relative="1" as="geometry">
            <mxPoint x="310" y="643" as="sourcePoint" />
            <mxPoint x="780" y="150" as="targetPoint" />
            <Array as="points">
              <mxPoint x="630" y="643" />
              <mxPoint x="630" y="150" />
            </Array>
          </mxGeometry>
        </mxCell>
        <mxCell id="2QyRIhkgAAj0MdfAddQl-5" value="streamsets" style="shape=folder;fontStyle=1;spacingTop=10;tabWidth=40;tabHeight=14;tabPosition=left;html=1;" vertex="1" parent="1">
          <mxGeometry x="240" y="290" width="70" height="50" as="geometry" />
        </mxCell>
        <mxCell id="2QyRIhkgAAj0MdfAddQl-101" value="" style="endArrow=none;html=1;edgeStyle=orthogonalEdgeStyle;" edge="1" parent="1" target="2QyRIhkgAAj0MdfAddQl-5">
          <mxGeometry relative="1" as="geometry">
            <mxPoint x="130" y="320" as="sourcePoint" />
            <mxPoint x="290" y="320" as="targetPoint" />
            <Array as="points">
              <mxPoint x="210" y="320" />
              <mxPoint x="210" y="320" />
            </Array>
          </mxGeometry>
        </mxCell>
        <mxCell id="2QyRIhkgAAj0MdfAddQl-104" style="edgeStyle=orthogonalEdgeStyle;rounded=0;orthogonalLoop=1;jettySize=auto;html=1;entryX=1.024;entryY=0.504;entryDx=0;entryDy=0;entryPerimeter=0;" edge="1" parent="1">
          <mxGeometry relative="1" as="geometry">
            <mxPoint x="923.3600000000001" y="146.32000000000005" as="targetPoint" />
            <mxPoint x="1040" y="316" as="sourcePoint" />
            <Array as="points">
              <mxPoint x="1000" y="316" />
              <mxPoint x="1000" y="146" />
            </Array>
          </mxGeometry>
        </mxCell>
        <mxCell id="2QyRIhkgAAj0MdfAddQl-105" style="edgeStyle=orthogonalEdgeStyle;rounded=0;orthogonalLoop=1;jettySize=auto;html=1;entryX=0;entryY=0;entryDx=140;entryDy=63.5;entryPerimeter=0;" edge="1" parent="1">
          <mxGeometry relative="1" as="geometry">
            <mxPoint x="1040" y="344" as="sourcePoint" />
            <mxPoint x="920" y="517.5" as="targetPoint" />
            <Array as="points">
              <mxPoint x="1000" y="344" />
              <mxPoint x="1000" y="518" />
            </Array>
          </mxGeometry>
        </mxCell>
        <mxCell id="2QyRIhkgAAj0MdfAddQl-106" style="edgeStyle=orthogonalEdgeStyle;rounded=0;orthogonalLoop=1;jettySize=auto;html=1;entryX=0;entryY=0;entryDx=140;entryDy=71;entryPerimeter=0;" edge="1" parent="1" source="2QyRIhkgAAj0MdfAddQl-103" target="2QyRIhkgAAj0MdfAddQl-46">
          <mxGeometry relative="1" as="geometry">
            <Array as="points">
              <mxPoint x="920" y="330" />
            </Array>
          </mxGeometry>
        </mxCell>
        <mxCell id="2QyRIhkgAAj0MdfAddQl-103" value="Actor" style="shape=umlActor;verticalLabelPosition=bottom;verticalAlign=top;html=1;" vertex="1" parent="1">
          <mxGeometry x="1040" y="300" width="30" height="60" as="geometry" />
        </mxCell>
      </root>
    </mxGraphModel>
  </diagram>
</mxfile>
